<svg aria-hidden="true" style="width:0;height:0;position:absolute;overflow:hidden" xmlns="http://www.w3.org/2000/svg"><defs><symbol id="icon-alert-circle" viewBox="0 0 24 24"><path d="M23 12c0-3.037-1.232-5.789-3.222-7.778S15.037 1 12 1 6.211 2.232 4.222 4.222 1 8.963 1 12s1.232 5.789 3.222 7.778S8.963 23 12 23s5.789-1.232 7.778-3.222S23 15.037 23 12zm-2 0c0 2.486-1.006 4.734-2.636 6.364S14.486 21 12 21s-4.734-1.006-6.364-2.636S3 14.486 3 12s1.006-4.734 2.636-6.364S9.514 3 12 3s4.734 1.006 6.364 2.636S21 9.514 21 12zM11 8v4a1 1 0 0 0 2 0V8a1 1 0 0 0-2 0zm1 9a1 1 0 1 0 0-2 1 1 0 0 0 0 2z"/></symbol><symbol id="icon-alert-triangle" viewBox="0 0 24 24"><path d="M11.148 4.374a.973.973 0 0 1 .334-.332c.236-.143.506-.178.756-.116s.474.216.614.448l8.466 14.133c.07.12.119.268.128.434-.015.368-.119.591-.283.759a.988.988 0 0 1-.693.301L3.533 20a.997.997 0 0 1-.855-1.486zM9.432 3.346l-8.47 14.14c-.422.731-.506 1.55-.308 2.29s.68 1.408 1.398 1.822c.464.268.976.4 1.475.402H20.47a3 3 0 0 0 2.572-4.507L14.568 3.346a2.995 2.995 0 0 0-4.123-1.014c-.429.26-.775.615-1.012 1.014zM11 9v4a1 1 0 0 0 2 0V9a1 1 0 0 0-2 0zm1 9a1 1 0 1 0 0-2 1 1 0 0 0 0 2z"/></symbol><symbol id="icon-arrow-left" viewBox="0 0 24 24"><path d="M12.707 18.293 7.414 13H19a1 1 0 0 0 0-2H7.414l5.293-5.293a.999.999 0 1 0-1.414-1.414l-7 7a.998.998 0 0 0 0 1.414l7 7a.999.999 0 1 0 1.414-1.414z"/></symbol><symbol id="icon-arrow-right" viewBox="0 0 24 24"><path d="M11.293 5.707 16.586 11H5a1 1 0 0 0 0 2h11.586l-5.293 5.293a.999.999 0 1 0 1.414 1.414l7-7a1.006 1.006 0 0 0 0-1.414l-7-7a.999.999 0 1 0-1.414 1.414z"/></symbol><symbol id="icon-bookmark" viewBox="0 0 24 24"><path d="M18.419 21.814A1 1 0 0 0 20 21V5a2.997 2.997 0 0 0-3-3H7a2.997 2.997 0 0 0-3 3v16a1 1 0 0 0 1.581.813L12 17.229zM18 19.057l-5.419-3.871a1 1 0 0 0-1.162 0L6 19.057V5c0-.276.111-.525.293-.707S6.724 4 7 4h10c.276 0 .525.111.707.293S18 4.724 18 5z"/></symbol><symbol id="icon-bookmark-fill" viewBox="0 0 24 24"><path d="M18.419 21.814 19 22l1-1V5l-.879-2.121L17 2H7l-2.121.879L4 5v16l.186.581 1.395.232L12 17.229z"/></symbol><symbol id="icon-check" viewBox="0 0 24 24"><path d="M19.293 5.293 9 15.586l-4.293-4.293a.999.999 0 1 0-1.414 1.414l5 5a.999.999 0 0 0 1.414 0l11-11a.999.999 0 1 0-1.414-1.414z"/></symbol><symbol id="icon-clock" viewBox="0 0 24 24"><path d="M23 12c0-3.037-1.232-5.789-3.222-7.778S15.037 1 12 1 6.211 2.232 4.222 4.222 1 8.963 1 12s1.232 5.789 3.222 7.778S8.963 23 12 23s5.789-1.232 7.778-3.222S23 15.037 23 12zm-2 0c0 2.486-1.006 4.734-2.636 6.364S14.486 21 12 21s-4.734-1.006-6.364-2.636S3 14.486 3 12s1.006-4.734 2.636-6.364S9.514 3 12 3s4.734 1.006 6.364 2.636S21 9.514 21 12zM11 6v6a1 1 0 0 0 .553.894l4 2a1 1 0 0 0 .895-1.789L13 11.382V6a1 1 0 0 0-2 0z"/></symbol><symbol id="icon-edit" viewBox="0 0 24 24"><path d="M11 3H4a2.997 2.997 0 0 0-3 3v14a2.997 2.997 0 0 0 3 3h14a2.997 2.997 0 0 0 3-3v-7a1 1 0 0 0-2 0v7c0 .276-.111.525-.293.707S18.276 21 18 21H4c-.276 0-.525-.111-.707-.293S3 20.276 3 20V6c0-.276.111-.525.293-.707S3.724 5 4 5h7a1 1 0 0 0 0-2zm6.793-1.207-9.5 9.5a.992.992 0 0 0-.263.465l-1 4a1 1 0 0 0 1.213 1.213l4-1c.167-.041.33-.129.465-.263l9.5-9.5c.609-.609.914-1.41.914-2.207s-.305-1.598-.914-2.207a3.119 3.119 0 0 0-4.415-.001zm1.414 1.414c.219-.219.504-.328.793-.328s.574.109.793.328.328.504.328.793-.109.574-.328.793l-9.304 9.304-2.114.529.529-2.114z"/></symbol><symbol id="icon-loader" viewBox="0 0 24 24"><path d="M11 2v4a1 1 0 0 0 2 0V2a1 1 0 0 0-2 0zm0 16v4a1 1 0 0 0 2 0v-4a1 1 0 0 0-2 0zM4.223 5.637l2.83 2.83a.999.999 0 1 0 1.414-1.414l-2.83-2.83a.999.999 0 1 0-1.414 1.414zm11.31 11.31 2.83 2.83a.999.999 0 1 0 1.414-1.414l-2.83-2.83a.999.999 0 1 0-1.414 1.414zM2 13h4a1 1 0 0 0 0-2H2a1 1 0 0 0 0 2zm16 0h4a1 1 0 0 0 0-2h-4a1 1 0 0 0 0 2zM5.637 19.777l2.83-2.83a.999.999 0 1 0-1.414-1.414l-2.83 2.83a.999.999 0 1 0 1.414 1.414zm11.31-11.31 2.83-2.83a.999.999 0 1 0-1.414-1.414l-2.83 2.83a.999.999 0 1 0 1.414 1.414z"/></symbol><symbol id="icon-minus-circle" viewBox="0 0 24 24"><path d="M23 12c0-3.037-1.232-5.789-3.222-7.778S15.037 1 12 1 6.211 2.232 4.222 4.222 1 8.963 1 12s1.232 5.789 3.222 7.778S8.963 23 12 23s5.789-1.232 7.778-3.222S23 15.037 23 12zm-2 0c0 2.486-1.006 4.734-2.636 6.364S14.486 21 12 21s-4.734-1.006-6.364-2.636S3 14.486 3 12s1.006-4.734 2.636-6.364S9.514 3 12 3s4.734 1.006 6.364 2.636S21 9.514 21 12zM8 13h8a1 1 0 0 0 0-2H8a1 1 0 0 0 0 2z"/></symbol><symbol id="icon-plus-circle" viewBox="0 0 24 24"><path d="M23 12c0-3.037-1.232-5.789-3.222-7.778S15.037 1 12 1 6.211 2.232 4.222 4.222 1 8.963 1 12s1.232 5.789 3.222 7.778S8.963 23 12 23s5.789-1.232 7.778-3.222S23 15.037 23 12zm-2 0c0 2.486-1.006 4.734-2.636 6.364S14.486 21 12 21s-4.734-1.006-6.364-2.636S3 14.486 3 12s1.006-4.734 2.636-6.364S9.514 3 12 3s4.734 1.006 6.364 2.636S21 9.514 21 12zM8 13h3v3a1 1 0 0 0 2 0v-3h3a1 1 0 0 0 0-2h-3V8a1 1 0 0 0-2 0v3H8a1 1 0 0 0 0 2z"/></symbol><symbol id="icon-search" viewBox="0 0 24 24"><path d="M16.041 15.856a.995.995 0 0 0-.186.186A6.97 6.97 0 0 1 11 18c-1.933 0-3.682-.782-4.95-2.05S4 12.933 4 11s.782-3.682 2.05-4.95S9.067 4 11 4s3.682.782 4.95 2.05S18 9.067 18 11a6.971 6.971 0 0 1-1.959 4.856zm5.666 4.437-3.675-3.675A8.967 8.967 0 0 0 20 11c0-2.485-1.008-4.736-2.636-6.364S13.485 2 11 2 6.264 3.008 4.636 4.636 2 8.515 2 11s1.008 4.736 2.636 6.364S8.515 20 11 20a8.967 8.967 0 0 0 5.618-1.968l3.675 3.675a.999.999 0 1 0 1.414-1.414z"/></symbol><symbol id="icon-send" viewBox="0 0 24 24"><path d="M22.963 2.269a1.014 1.014 0 0 0-.354-1.063.99.99 0 0 0-.812-.185 1.122 1.122 0 0 0-.126.035l-.021.007L1.67 8.056a.999.999 0 0 0-.076 1.858l8.649 3.844 3.844 8.649a1 1 0 0 0 1.857-.076l6.993-19.979c.01-.027.019-.054.027-.082zm-12.184 9.538L4.711 9.111l13.483-4.72zm8.83-6.001-4.72 13.483-2.696-6.068z"/></symbol><symbol id="icon-smile" viewBox="0 0 24 24"><path d="M23 12c0-3.037-1.232-5.789-3.222-7.778S15.037 1 12 1 6.211 2.232 4.222 4.222 1 8.963 1 12s1.232 5.789 3.222 7.778S8.963 23 12 23s5.789-1.232 7.778-3.222S23 15.037 23 12zm-2 0c0 2.486-1.006 4.734-2.636 6.364S14.486 21 12 21s-4.734-1.006-6.364-2.636S3 14.486 3 12s1.006-4.734 2.636-6.364S9.514 3 12 3s4.734 1.006 6.364 2.636S21 9.514 21 12zM7.2 14.6s.131.173.331.383a6.776 6.776 0 0 0 1.874 1.393c.705.352 1.579.624 2.595.624s1.89-.272 2.595-.624A6.776 6.776 0 0 0 16.8 14.6a1 1 0 0 0-1.6-1.2c-.041.05-.181.206-.181.206a4.752 4.752 0 0 1-1.318.982c-.48.239-1.05.412-1.701.412s-1.221-.173-1.701-.413a4.737 4.737 0 0 1-.91-.6 4.959 4.959 0 0 1-.408-.382A7.103 7.103 0 0 1 8.8 13.4a1 1 0 0 0-1.6 1.2zM9 10a1 1 0 1 0 0-2 1 1 0 0 0 0 2zm6 0a1 1 0 1 0 0-2 1 1 0 0 0 0 2z"/></symbol><symbol id="icon-user" viewBox="0 0 24 24"><path d="M21 21v-2c0-1.38-.561-2.632-1.464-3.536S17.38 14 16 14H8c-1.38 0-2.632.561-3.536 1.464S3 17.62 3 19v2a1 1 0 0 0 2 0v-2c0-.829.335-1.577.879-2.121S7.171 16 8 16h8c.829 0 1.577.335 2.121.879S19 18.171 19 19v2a1 1 0 0 0 2 0zM17 7c0-1.38-.561-2.632-1.464-3.536S13.38 2 12 2s-2.632.561-3.536 1.464S7 5.62 7 7s.561 2.632 1.464 3.536S10.62 12 12 12s2.632-.561 3.536-1.464S17 8.38 17 7zm-2 0c0 .829-.335 1.577-.879 2.121S12.829 10 12 10s-1.577-.335-2.121-.879S9 7.829 9 7s.335-1.577.879-2.121S11.171 4 12 4s1.577.335 2.121.879S15 6.171 15 7z"/></symbol><symbol id="icon-upload-cloud" viewBox="0 0 24 24"><path d="M11 14.414V21a1 1 0 0 0 2 0v-6.586l2.293 2.293a.999.999 0 1 0 1.414-1.414l-4-4A1.008 1.008 0 0 0 12 11a.997.997 0 0 0-.707.293l-4 4a.999.999 0 1 0 1.414 1.414zm9.869 4.854c1.454-.793 2.451-2.102 2.884-3.574s.305-3.112-.488-4.566a5.967 5.967 0 0 0-2.959-2.663A6.09 6.09 0 0 0 18.007 8h-.527a8.971 8.971 0 0 0-3.917-4.752C11.58 2.08 9.148 1.667 6.742 2.289S2.409 4.451 1.24 6.434s-1.581 4.415-.959 6.821a8.904 8.904 0 0 0 1.975 3.713 1 1 0 1 0 1.487-1.337 6.885 6.885 0 0 1-1.526-2.877c-.484-1.872-.164-3.761.746-5.305s2.407-2.74 4.279-3.224 3.761-.164 5.305.746 2.74 2.407 3.224 4.279c.116.435.506.75.969.75h1.253a4.11 4.11 0 0 1 1.545.312 3.97 3.97 0 0 1 1.97 1.773c.529.97.615 2.061.325 3.044s-.953 1.854-1.923 2.382a1 1 0 1 0 .958 1.756z"/></symbol><symbol id="icon-users" viewBox="0 0 24 24"><path d="M18 21v-2c0-1.38-.561-2.632-1.464-3.536S14.38 14 13 14H5c-1.38 0-2.632.561-3.536 1.464S0 17.62 0 19v2a1 1 0 0 0 2 0v-2c0-.829.335-1.577.879-2.121S4.171 16 5 16h8c.829 0 1.577.335 2.121.879S16 18.171 16 19v2a1 1 0 0 0 2 0zM14 7c0-1.38-.561-2.632-1.464-3.536S10.38 2 9 2s-2.632.561-3.536 1.464S4 5.62 4 7s.561 2.632 1.464 3.536S7.62 12 9 12s2.632-.561 3.536-1.464S14 8.38 14 7zm-2 0c0 .829-.335 1.577-.879 2.121S9.829 10 9 10s-1.577-.335-2.121-.879S6 7.829 6 7s.335-1.577.879-2.121S8.171 4 9 4s1.577.335 2.121.879S12 6.171 12 7zm12 14v-2a4.972 4.972 0 0 0-1.215-3.261 5.055 5.055 0 0 0-2.529-1.576 1 1 0 1 0-.511 1.933 3.049 3.049 0 0 1 1.528.952c.454.526.726 1.206.727 1.952v2a1 1 0 0 0 2 0zM15.752 4.099c.803.206 1.445.715 1.837 1.377s.531 1.47.325 2.273a2.969 2.969 0 0 1-1.105 1.652 3.08 3.08 0 0 1-1.063.511 1 1 0 1 0 .508 1.934 5.074 5.074 0 0 0 1.752-.844 4.965 4.965 0 0 0 1.845-2.758c.342-1.337.11-2.689-.542-3.788s-1.725-1.953-3.062-2.296a1 1 0 0 0-.496 1.938z"/></symbol><symbol id="icon-bolt" viewBox="0 0 24 24"><path d="M10 24a.99.99 0 0 1-1-1c0-.018.001-.085.003-.103L9.944 14H5a.99.99 0 0 1-1-1c0-.213.073-.432.201-.601L12.184.423C12.387.15 12.687 0 13 0a.99.99 0 0 1 1 1c0 .02-.001.099-.003.119L13.062 9H19a.99.99 0 0 1 1 1c0 .211-.073.43-.2.6l-8.989 12.985A1.013 1.013 0 0 1 10 24zm3.003-22.999L5.016 12.978 10.5 13a.499.499 0 0 1 .497.553l-1 9.45L19 10v-.004L12.5 10a.5.5 0 0 1-.497-.559z"/></symbol><symbol id="icon-reset" viewBox="0 0 18 18"><path d="M16 6h-6l2.243-2.243C11.11 2.624 9.603 2 8 2s-3.109.624-4.243 1.757C2.624 4.89 2 6.397 2 8s.624 3.109 1.757 4.243C4.89 13.376 6.397 14 8 14a5.963 5.963 0 0 0 4.516-2.049l1.505 1.317a8 8 0 1 1-.364-10.924L16 0v6z"/></symbol><symbol id="icon-bin" viewBox="0 0 18 18"><path d="M3 16h10l1-11H2zm7-14V0H6v2H1v3l1-1h12l1 1V2h-5zM9 2H7V1h2v1z"/></symbol><symbol id="icon-download" viewBox="0 0 18 18"><path d="m8 9 4-4H9V1H7v4H4zm3.636-1.636-1.121 1.121L14.579 10 8 12.453 1.421 10l4.064-1.515-1.121-1.121L0 9v4l8 3 8-3V9z"/></symbol><symbol id="icon-minus" viewBox="0 0 18 18"><path d="M0 6.5v3a.5.5 0 0 0 .5.5h15a.5.5 0 0 0 .5-.5v-3a.5.5 0 0 0-.5-.5H.5a.5.5 0 0 0-.5.5z"/></symbol><symbol id="icon-checkmark" viewBox="0 0 18 18"><path d="M13.5 2 6 9.5 2.5 6 0 8.5l6 6 10-10z"/></symbol><symbol id="icon-plus" viewBox="0 0 24 24"><path d="M15.5 6H10V.5a.5.5 0 0 0-.5-.5h-3a.5.5 0 0 0-.5.5V6H.5a.5.5 0 0 0-.5.5v3a.5.5 0 0 0 .5.5H6v5.5a.5.5 0 0 0 .5.5h3a.5.5 0 0 0 .5-.5V10h5.5a.5.5 0 0 0 .5-.5v-3a.5.5 0 0 0-.5-.5z"/></symbol><symbol id="icon-edit-pencil" viewBox="0 0 18 18"><path d="M13.5 0a2.5 2.5 0 0 1 2 4l-1 1L11 1.5l1-1c.418-.314.937-.5 1.5-.5zM1 11.5 0 16l4.5-1 9.25-9.25-3.5-3.5L1 11.5zm10.181-5.819-7 7-.862-.862 7-7 .862.862z"/></symbol><symbol id="icon-calendar" viewBox="0 0 18 18"><path d="M5 6h2v2H5zm3 0h2v2H8zm3 0h2v2h-2zm-9 6h2v2H2zm3 0h2v2H5zm3 0h2v2H8zM5 9h2v2H5zm3 0h2v2H8zm3 0h2v2h-2zM2 9h2v2H2zm11-9v1h-2V0H4v1H2V0H0v16h15V0h-2zm1 15H1V4h13v11z"/></symbol><symbol id="icon-list" viewBox="0 0 18 18"><path d="M13.5 0h-12C.675 0 0 .675 0 1.5v13c0 .825.675 1.5 1.5 1.5h12c.825 0 1.5-.675 1.5-1.5v-13c0-.825-.675-1.5-1.5-1.5zM13 14H2V2h11v12zM4 7h7v1H4zm0 2h7v1H4zm0 2h7v1H4zm0-6h7v1H4z"/></symbol><symbol id="icon-sun" viewBox="0 0 18 18"><path d="m2.672 13.922 1.336-1.371 1.055 1.055-1.336 1.371zm5.59 2.918v-2.215h1.477v2.215H8.262zM9 4.113q1.863 0 3.182 1.318T13.5 8.613t-1.318 3.182T9 13.113t-3.182-1.318T4.5 8.613t1.318-3.182T9 4.113zm6.012 3.762h2.25v1.512h-2.25V7.875zm-2.074 5.73 1.055-1.02 1.336 1.336-1.055 1.055zm2.39-10.265-1.336 1.336-1.055-1.055 1.336-1.336zM9.738.422v2.215H8.261V.422h1.477zm-6.75 7.453v1.512H.738V7.875h2.25zm2.075-4.254L4.008 4.676 2.672 3.34l1.055-1.055z"/></symbol><symbol id="icon-moon" viewBox="0 0 18 18"><path d="M6.128 4.26c0 4.247 2.913 7.689 6.506 7.689.893 0 1.744-.214 2.519-.598a6.65 6.65 0 0 1-12.87-2.359 6.654 6.654 0 0 1 3.95-6.077 9.13 9.13 0 0 0-.106 1.344z"/></symbol></defs></svg>